<svg xmlns="http://www.w3.org/2000/svg" viewBox="0 0 512 512" role="img" aria-labelledby="title desc">
  <title id="title">Mac Health Triage</title>
  <desc id="desc">A white rounded app tile with a red health heart.</desc>
  <defs>
    <linearGradient id="tile" x1="98" y1="54" x2="414" y2="478" gradientUnits="userSpaceOnUse">
      <stop offset="0" stop-color="#ffffff"/>
      <stop offset="1" stop-color="#f3f4f6"/>
    </linearGradient>
    <linearGradient id="heart" x1="165" y1="123" x2="347" y2="378" gradientUnits="userSpaceOnUse">
      <stop offset="0" stop-color="#ff5f7e"/>
      <stop offset="0.48" stop-color="#ff2d55"/>
      <stop offset="1" stop-color="#ff3b30"/>
    </linearGradient>
    <filter id="shadow" x="-20%" y="-20%" width="140%" height="140%">
      <feDropShadow dx="0" dy="18" stdDeviation="24" flood-color="#111827" flood-opacity="0.18"/>
    </filter>
  </defs>
  <rect x="44" y="44" width="424" height="424" rx="98" fill="url(#tile)" filter="url(#shadow)"/>
  <rect x="45" y="45" width="422" height="422" rx="97" fill="none" stroke="#e5e7eb" stroke-width="2"/>
  <path fill="url(#heart)" d="M256 385c-8-7-18-15-28-23-78-62-129-104-129-166 0-48 37-84 84-84 29 0 57 15 73 40 16-25 44-40 73-40 47 0 84 36 84 84 0 62-51 104-129 166-10 8-20 16-28 23Z"/>
  <path d="M142 253h59l22-50 55 124 32-74h60" fill="none" stroke="#ffffff" stroke-width="22" stroke-linecap="round" stroke-linejoin="round" opacity="0.95"/>
  <path d="M142 253h59l22-50 55 124 32-74h60" fill="none" stroke="#fecdd3" stroke-width="10" stroke-linecap="round" stroke-linejoin="round" opacity="0.34"/>
</svg>
